HIERARCHY
ROOT Hips
{
	OFFSET 0.000000 0.000000 0.000000
	CHANNELS 6 Xposition Yposition Zposition Zrotation Yrotation Xrotation 
	JOINT LeftUpLeg_virtual
	{
		OFFSET 0.000000 0.000000 0.000000
		CHANNELS 3 Zrotation Yrotation Xrotation
		JOINT LeftUpLeg
		{
			OFFSET 8.479694 -4.795517 -0.379053
			CHANNELS 3 Zrotation Yrotation Xrotation
			JOINT LeftLeg
			{
				OFFSET 0.485052 -32.551468 0.112863
				CHANNELS 3 Zrotation Yrotation Xrotation
				JOINT LeftFoot
				{
					OFFSET 0.438033 -32.635670 -3.012641
					CHANNELS 3 Zrotation Yrotation Xrotation
					JOINT LeftToeBase
					{
						OFFSET 0.970169 -13.225353 11.864223
						CHANNELS 3 Zrotation Yrotation Xrotation
						End Site
						{
							OFFSET 0.000000 0.000000 0.000000
						}
					}
				}
			}
		}
	}
	JOINT RightUpLeg_virtual
	{
		OFFSET 0.000000 0.000000 0.000000
		CHANNELS 3 Zrotation Yrotation Xrotation
		JOINT RightUpLeg
		{
			OFFSET -8.479694 -4.795517 -0.379053
			CHANNELS 3 Zrotation Yrotation Xrotation
			JOINT RightLeg
			{
				OFFSET -0.484100 -32.551483 0.112903
				CHANNELS 3 Zrotation Yrotation Xrotation
				JOINT RightFoot
				{
					OFFSET -0.438985 -32.635651 -3.012681
					CHANNELS 3 Zrotation Yrotation Xrotation
					JOINT RightToeBase
					{
						OFFSET -0.970169 -13.225354 11.864223
						CHANNELS 3 Zrotation Yrotation Xrotation
						End Site
						{
							OFFSET 0.000000 0.000000 0.000000
						}
					}
				}
			}
		}
	}
	JOINT Spine_virtual
	{
		OFFSET 0.000000 0.000000 0.000000
		CHANNELS 3 Zrotation Yrotation Xrotation
		JOINT Spine
		{
			OFFSET 0.000000 7.722015 1.166203
			CHANNELS 3 Zrotation Yrotation Xrotation
			JOINT Spine1
			{
				OFFSET 0.000000 12.024086 0.248766
				CHANNELS 3 Zrotation Yrotation Xrotation
				JOINT Spine2
				{
					OFFSET -0.000000 11.503036 -0.491240
					CHANNELS 3 Zrotation Yrotation Xrotation
					JOINT Neck_virtual
					{
						OFFSET 0.000000 0.000000 0.000000
						CHANNELS 3 Zrotation Yrotation Xrotation
						JOINT Neck
						{
							OFFSET 0.000000 18.430687 -3.123054
							CHANNELS 3 Zrotation Yrotation Xrotation
							JOINT Head
							{
								OFFSET -0.000000 9.051071 1.034021
								CHANNELS 3 Zrotation Yrotation Xrotation
								End Site
								{
									OFFSET 0.000000 0.000000 0.000000
								}
							}
						}
					}
					JOINT LeftShoulder_virtual
					{
						OFFSET 0.000000 0.000000 0.000000
						CHANNELS 3 Zrotation Yrotation Xrotation
						JOINT LeftShoulder
						{
							OFFSET 6.197824 13.665230 -4.064723
							CHANNELS 3 Zrotation Yrotation Xrotation
							JOINT LeftArm
							{
								OFFSET 7.778132 -0.187073 -1.709282
								CHANNELS 3 Zrotation Yrotation Xrotation
								JOINT LeftForeArm
								{
									OFFSET 21.954697 0.000000 -2.041093
									CHANNELS 3 Zrotation Yrotation Xrotation
									JOINT LeftHand
									{
										OFFSET 22.992908 0.000000 -0.870901
										CHANNELS 3 Zrotation Yrotation Xrotation
										End Site
										{
											OFFSET 0.000000 0.000000 0.000000
										}
									}
								}
							}
						}
					}
					JOINT RightShoulder_virtual
					{
						OFFSET 0.000000 0.000000 0.000000
						CHANNELS 3 Zrotation Yrotation Xrotation
						JOINT RightShoulder
						{
							OFFSET -6.197824 13.665230 -4.064723
							CHANNELS 3 Zrotation Yrotation Xrotation
							JOINT RightArm
							{
								OFFSET -7.778132 -0.187073 -1.709282
								CHANNELS 3 Zrotation Yrotation Xrotation
								JOINT RightForeArm
								{
									OFFSET -21.954697 0.000000 -2.041093
									CHANNELS 3 Zrotation Yrotation Xrotation
									JOINT RightHand
									{
										OFFSET -22.992908 0.000000 -0.870901
										CHANNELS 3 Zrotation Yrotation Xrotation
										End Site
										{
											OFFSET 0.000000 0.000000 0.000000
										}
									}
								}
							}
						}
					}
				}
			}
		}
	}
}
MOTION
Frames: 11
Frame Time: 0.033333
13.481422 81.372231 24.228989 -179.957794 8.718529 -179.991522 -3.532235 -0.723016 10.756695 3.009590 0.798865 -22.627162 5.049861 5.029535 27.651751 -2.096751 -8.955515 -12.487139 0.000000 0.000000 0.000000 0.056041 -2.153565 10.704893 -4.450689 1.274916 -21.421223 -1.142520 5.779281 26.945206 9.750856 5.717356 -10.282358 0.000000 0.000000 0.000000 3.197964 0.946929 -2.522478 -2.799271 2.119176 -0.219549 1.703327 -1.697424 4.316444 0.003847 0.016492 -0.037889 1.500886 -0.587414 5.132830 3.040905 -6.262995 1.703853 0.000000 0.000000 0.000000 2.510760 -0.011714 1.986657 -1.126562 -10.024469 -0.320999 -46.559217 -18.852818 8.501268 4.672084 -45.467224 3.894405 0.000000 0.000000 0.000000 -1.421608 1.624983 0.780747 6.551663 -6.784359 -10.517622 -14.309257 33.171838 -80.226186 -177.226757 52.014093 177.515428 0.000000 0.000000 0.000000 
13.375444 81.375702 24.204609 179.966879 9.047293 -179.997041 -3.513543 -0.823261 10.881041 2.760682 0.977590 -22.684265 5.156571 5.258354 27.561755 -2.100620 -8.906086 -12.445573 0.000000 0.000000 0.000000 0.026200 -2.123103 10.817121 -4.607855 1.407438 -21.568329 -1.168079 5.921430 26.824704 9.914154 5.769349 -10.183365 0.000000 0.000000 0.000000 3.211991 0.978629 -2.208037 -2.898976 1.915067 -0.352036 1.597961 -1.654311 4.209420 -0.021530 -0.004782 -0.056160 1.459773 -0.592978 5.016510 3.113469 -6.376610 1.793733 0.000000 0.000000 0.000000 2.508856 0.034549 1.857226 -2.152483 -10.517131 -0.058646 -50.472209 -17.946537 15.660055 4.346039 -40.294045 3.963482 0.000000 0.000000 0.000000 -1.453563 1.694549 0.688087 6.358178 -6.706753 -10.320257 -13.788867 34.016678 -80.054154 -176.822628 52.447756 178.172929 0.000000 0.000000 0.000000 
13.263616 81.375076 24.161226 -179.985061 9.400980 179.971387 -3.485928 -0.762512 11.009313 2.587285 1.297590 -22.742824 5.205028 5.296968 27.516647 -2.115872 -8.934290 -12.499197 0.000000 0.000000 0.000000 0.079656 -2.073093 10.937188 -4.750568 1.549191 -21.623255 -1.172435 5.984667 26.720627 9.974786 5.746986 -10.147768 0.000000 0.000000 0.000000 3.347328 0.969870 -1.894134 -3.015265 1.674228 -0.458873 1.519467 -1.624362 4.130665 0.005414 -0.006789 -0.041389 1.400483 -0.484095 4.904620 3.210181 -6.612871 1.888793 0.000000 0.000000 0.000000 2.437044 0.104942 1.720345 -3.161067 -10.690937 0.094492 -54.643562 -16.314825 22.325119 4.200528 -36.557058 3.984247 0.000000 0.000000 0.000000 -1.487978 1.732770 0.611353 6.190849 -6.730750 -10.164880 -13.277922 34.908496 -79.792353 -176.316662 52.805651 178.949317 0.000000 0.000000 0.000000 
13.146203 81.366234 24.096666 -179.942713 9.594018 -179.978148 -3.435816 -0.813328 11.076418 2.400291 1.465136 -22.796993 5.298371 5.393148 27.520710 -2.122069 -8.911152 -12.549279 0.000000 0.000000 0.000000 0.076023 -2.154353 11.025226 -4.867055 1.755353 -21.723970 -1.172125 6.034091 26.621313 10.054775 5.773987 -10.056754 0.000000 0.000000 0.000000 3.341957 0.969893 -1.639655 -3.010074 1.474118 -0.643583 1.509949 -1.609697 4.038077 0.015047 -0.032331 -0.010773 1.266757 -0.616650 4.822391 3.282145 -6.497420 2.009715 0.000000 0.000000 0.000000 2.334290 0.179485 1.633441 -4.071526 -10.591062 0.152622 -58.673757 -13.946644 27.784149 4.205715 -34.051731 3.917190 0.000000 0.000000 0.000000 -1.608346 1.791138 0.557611 6.058493 -6.832703 -9.876830 -12.879083 35.676209 -79.816826 -175.941001 53.083814 179.617173 0.000000 0.000000 0.000000 
13.049568 81.355034 24.021376 179.972807 9.792354 -179.982848 -3.430456 -0.835286 11.168534 2.191880 1.473009 -22.780028 5.427982 5.564264 27.533445 -2.116409 -8.832375 -12.575380 0.000000 0.000000 0.000000 -0.020446 -2.218609 11.068935 -4.961512 1.872722 -21.818109 -1.205456 6.109847 26.551372 10.209767 5.906059 -10.008361 0.000000 0.000000 0.000000 3.324369 1.017609 -1.406980 -3.121665 1.355963 -0.780781 1.445800 -1.558312 3.988067 -0.009989 -0.022631 -0.036219 1.293294 -0.426433 4.803862 3.440935 -6.648692 2.025674 0.000000 0.000000 0.000000 2.392154 0.201400 1.650025 -4.845641 -10.197732 0.026676 -62.394768 -11.127901 31.465210 4.271356 -32.491278 3.901604 0.000000 0.000000 0.000000 -1.602805 1.849545 0.535017 5.911743 -7.001466 -9.775773 -12.465339 36.377936 -79.615677 -175.534427 53.306864 -179.709613 0.000000 0.000000 0.000000 
12.973115 81.351173 23.958675 179.977547 9.984421 179.965280 -3.427664 -0.869261 11.234840 2.044914 1.491367 -22.752091 5.540074 5.590544 27.549182 -2.069663 -8.723582 -12.651746 0.000000 0.000000 0.000000 -0.049727 -2.246357 11.134429 -5.029703 1.869448 -21.758587 -1.193516 6.113993 26.462671 10.332070 6.018945 -9.976339 0.000000 0.000000 0.000000 3.331660 1.021117 -1.139320 -3.219369 1.281895 -0.915044 1.408367 -1.517534 3.981077 -0.011075 -0.013989 -0.025526 1.254979 -0.412364 4.762187 3.553566 -6.684679 2.081099 0.000000 0.000000 0.000000 2.384232 0.181989 1.626805 -5.467705 -9.622867 -0.165442 -65.612238 -8.227167 33.397443 4.518820 -31.677482 3.779006 0.000000 0.000000 0.000000 -1.635033 1.863508 0.515259 5.744429 -7.321118 -9.625882 -12.419340 37.096718 -79.804743 -175.182468 53.517124 -179.114239 0.000000 0.000000 0.000000 
12.932021 81.355957 23.918953 179.999281 10.047189 179.981591 -3.418319 -0.985174 11.267422 1.961135 1.440933 -22.748007 5.657692 5.518135 27.551585 -1.986112 -8.553779 -12.698466 0.000000 0.000000 0.000000 -0.055005 -2.366003 11.136891 -5.089304 1.878073 -21.726453 -1.118061 6.053939 26.342013 10.430141 6.147105 -9.885684 0.000000 0.000000 0.000000 3.359911 0.976192 -0.921047 -3.315739 1.253036 -1.094305 1.372275 -1.482324 3.978678 -0.020628 -0.023501 -0.032593 1.226977 -0.385842 4.835106 3.627339 -6.752200 2.143761 0.000000 0.000000 0.000000 2.365787 0.234995 1.745634 -5.667238 -8.957070 -0.483398 -68.424931 -5.555728 33.898017 4.867545 -31.408078 3.562999 0.000000 0.000000 0.000000 -1.688897 1.997157 0.554239 5.603944 -7.674175 -9.583954 -12.480671 37.702135 -79.900120 -174.917429 53.704265 -178.654198 0.000000 0.000000 0.000000 
12.932611 81.366837 23.895472 -179.935023 9.985778 179.980635 -3.401357 -1.161034 11.308324 1.903792 1.272118 -22.736322 5.777103 5.410699 27.544068 -1.913915 -8.367077 -12.715500 0.000000 0.000000 0.000000 -0.072309 -2.604616 11.121221 -5.104003 1.879480 -21.692426 -1.036962 6.024523 26.195927 10.516628 6.275524 -9.751306 0.000000 0.000000 0.000000 3.359814 0.828314 -0.798151 -3.399332 1.233950 -1.246913 1.375059 -1.489408 4.039542 -0.002054 -0.029931 -0.013801 1.135262 -0.456028 4.919474 3.625814 -6.750629 2.140738 0.000000 0.000000 0.000000 2.317758 0.264063 1.843010 -5.684141 -8.219200 -0.809926 -70.644175 -3.150147 33.598988 5.224080 -31.699045 3.420117 0.000000 0.000000 0.000000 -1.739242 1.925992 0.708655 5.383072 -7.845001 -9.528439 -12.733488 38.428434 -80.145549 -174.737781 53.855984 -178.320011 0.000000 0.000000 0.000000 
12.956213 81.381691 23.881237 -179.988981 9.941155 -179.974515 -3.426471 -1.380190 11.320087 1.836542 0.957757 -22.755093 5.928158 5.409056 27.501306 -1.868690 -8.152099 -12.671658 0.000000 0.000000 0.000000 -0.194528 -2.709113 11.083209 -5.022608 1.576145 -21.620892 -1.044380 5.955645 26.026016 10.845777 6.434785 -9.609791 0.000000 0.000000 0.000000 3.277061 0.720530 -0.768380 -3.541504 1.289190 -1.427070 1.334258 -1.462549 4.105882 -0.014824 -0.028420 -0.024490 1.145984 -0.298260 5.087267 3.679998 -6.851107 2.174636 0.000000 0.000000 0.000000 2.374641 0.332767 2.049216 -5.510971 -7.694496 -1.088215 -72.383162 -1.175872 33.189706 5.649186 -32.305992 3.161739 0.000000 0.000000 0.000000 -1.731457 1.963216 0.849672 5.160769 -8.018432 -9.486539 -12.903236 38.952610 -80.048492 -174.524078 53.967442 -178.003268 0.000000 0.000000 0.000000 
12.989807 81.395378 23.857492 -179.974870 9.855906 -179.968545 -3.542325 -1.510981 11.333022 1.971063 0.826298 -22.774100 5.960225 5.213952 27.573218 -1.686993 -7.980873 -12.726796 0.000000 0.000000 0.000000 -0.171084 -3.014440 11.040506 -5.102911 1.527375 -21.556997 -0.929766 5.839865 25.959548 10.740869 6.663324 -9.473005 0.000000 0.000000 0.000000 3.234787 0.592927 -0.788264 -3.650851 1.361988 -1.572390 1.328743 -1.426449 4.200997 0.000742 -0.007306 -0.057871 1.060374 -0.298529 5.325504 3.711859 -6.834660 2.211356 0.000000 0.000000 0.000000 2.312957 0.325124 2.333675 -5.107695 -7.132181 -1.452374 -73.637909 0.263781 32.929961 5.876402 -32.965082 3.197049 0.000000 0.000000 0.000000 -1.820720 1.967891 1.047701 5.078115 -8.180193 -9.466657 -13.109565 39.438916 -80.027578 -174.615425 54.091157 -178.052049 0.000000 0.000000 0.000000 
13.028658 81.404610 23.831198 -179.975498 9.735421 179.959516 -3.659616 -1.600645 11.371772 2.060104 0.714134 -22.733264 5.948408 5.009451 27.685241 -1.529951 -7.835116 -12.784095 0.000000 0.000000 0.000000 -0.181800 -3.104851 11.011827 -5.098026 1.238193 -21.388990 -0.833416 5.788106 25.888054 10.764528 6.776069 -9.457323 0.000000 0.000000 0.000000 3.151862 0.453142 -0.821990 -3.764083 1.405817 -1.671950 1.317843 -1.417026 4.339731 0.010637 -0.015557 -0.014124 1.026854 -0.341290 5.385568 3.693897 -6.702048 2.269732 0.000000 0.000000 0.000000 2.312523 0.343863 2.333071 -4.669624 -6.648824 -1.772181 -74.499011 1.418221 32.866419 6.243872 -33.488240 3.034641 0.000000 0.000000 0.000000 -1.822668 2.024566 1.194351 4.966262 -8.156593 -9.447545 -13.197651 39.849035 -79.826559 -174.577258 54.226275 -178.028567 0.000000 0.000000 0.000000 
